<?xml version="1.0" encoding="us-ascii" standalone="no"?><svg xmlns="http://www.w3.org/2000/svg" xmlns:xlink="http://www.w3.org/1999/xlink" contentStyleType="text/css" height="811px" preserveAspectRatio="none" style="width:382px;height:811px;background:#FFFFFF;" version="1.1" viewBox="0 0 382 811" width="382px" zoomAndPan="magnify"><defs/><g><!--class user--><g id="elem_user"><rect codeLine="1" fill="#F1F1F1" height="162.0781" id="user" rx="2.5" ry="2.5" style="stroke:#181818;stroke-width:0.5;" width="226" x="128" y="7"/><ellipse cx="220.75" cy="23" fill="#ADD1B2" rx="11" ry="11" style="stroke:#181818;stroke-width:1.0;"/><path d="M224.8594,29 L217.1406,29 L217.1406,16.6094 L224.8594,16.6094 L224.8594,18.7656 L219.5938,18.7656 L219.5938,21.4375 L224.3594,21.4375 L224.3594,23.5938 L219.5938,23.5938 L219.5938,26.8438 L224.8594,26.8438 L224.8594,29 Z " fill="#000000"/><text fill="#000000" font-family="sans-serif" font-size="14" lengthAdjust="spacing" textLength="32" x="241.25" y="27.8467">User</text><line style="stroke:#181818;stroke-width:0.5;" x1="129" x2="353" y1="39" y2="39"/><ellipse cx="139" cy="52.6484" fill="#000000" rx="3" ry="3" style="stroke:#000000;stroke-width:1.0;"/><text fill="#000000" font-family="sans-serif" font-size="14" lengthAdjust="spacing" textLength="89" x="148" y="55.9951">_id : ObjectId</text><line style="stroke:#181818;stroke-width:1.0;" x1="129" x2="353" y1="63.2969" y2="63.2969"/><ellipse cx="139" cy="76.9453" fill="#000000" rx="3" ry="3" style="stroke:#000000;stroke-width:1.0;"/><text fill="#000000" font-family="sans-serif" font-size="14" lengthAdjust="spacing" textLength="92" x="148" y="80.292">name : String</text><ellipse cx="139" cy="93.2422" fill="#000000" rx="3" ry="3" style="stroke:#000000;stroke-width:1.0;"/><text fill="#000000" font-family="sans-serif" font-size="14" lengthAdjust="spacing" textLength="89" x="148" y="96.5889">email : String</text><ellipse cx="139" cy="109.5391" fill="#000000" rx="3" ry="3" style="stroke:#000000;stroke-width:1.0;"/><text fill="#000000" font-family="sans-serif" font-size="14" lengthAdjust="spacing" textLength="120" x="148" y="112.8857">password : String</text><ellipse cx="139" cy="125.8359" fill="#000000" rx="3" ry="3" style="stroke:#000000;stroke-width:1.0;"/><text fill="#000000" font-family="sans-serif" font-size="14" lengthAdjust="spacing" textLength="124" x="148" y="129.1826">isAdmin : Boolean</text><rect fill="none" height="6" style="stroke:#C82930;stroke-width:1.0;" width="6" x="136" y="139.1328"/><text fill="#000000" font-family="sans-serif" font-size="14" lengthAdjust="spacing" textLength="200" x="148" y="145.4795">resetPasswordToken : String</text><rect fill="none" height="6" style="stroke:#C82930;stroke-width:1.0;" width="6" x="136" y="155.4297"/><text fill="#000000" font-family="sans-serif" font-size="14" lengthAdjust="spacing" textLength="199" x="148" y="161.7764">resetPasswordExpires : Date</text></g><!--class blog--><g id="elem_blog"><rect codeLine="11" fill="#F1F1F1" height="162.0781" id="blog" rx="2.5" ry="2.5" style="stroke:#181818;stroke-width:0.5;" width="164" x="7" y="246.08"/><ellipse cx="69.25" cy="262.08" fill="#ADD1B2" rx="11" ry="11" style="stroke:#181818;stroke-width:1.0;"/><path d="M73.3594,268.08 L65.6406,268.08 L65.6406,255.6894 L73.3594,255.6894 L73.3594,257.8456 L68.0938,257.8456 L68.0938,260.5175 L72.8594,260.5175 L72.8594,262.6738 L68.0938,262.6738 L68.0938,265.9238 L73.3594,265.9238 L73.3594,268.08 Z " fill="#000000"/><text fill="#000000" font-family="sans-serif" font-size="14" lengthAdjust="spacing" textLength="31" x="89.75" y="266.9267">Blog</text><line style="stroke:#181818;stroke-width:0.5;" x1="8" x2="170" y1="278.08" y2="278.08"/><ellipse cx="18" cy="291.7284" fill="#000000" rx="3" ry="3" style="stroke:#000000;stroke-width:1.0;"/><text fill="#000000" font-family="sans-serif" font-size="14" lengthAdjust="spacing" textLength="89" x="27" y="295.0751">_id : ObjectId</text><line style="stroke:#181818;stroke-width:1.0;" x1="8" x2="170" y1="302.3769" y2="302.3769"/><ellipse cx="18" cy="316.0253" fill="#000000" rx="3" ry="3" style="stroke:#000000;stroke-width:1.0;"/><text fill="#000000" font-family="sans-serif" font-size="14" lengthAdjust="spacing" textLength="78" x="27" y="319.372">title : String</text><ellipse cx="18" cy="332.3222" fill="#000000" rx="3" ry="3" style="stroke:#000000;stroke-width:1.0;"/><text fill="#000000" font-family="sans-serif" font-size="14" lengthAdjust="spacing" textLength="94" x="27" y="335.6689">avatar : String</text><ellipse cx="18" cy="348.6191" fill="#000000" rx="3" ry="3" style="stroke:#000000;stroke-width:1.0;"/><text fill="#000000" font-family="sans-serif" font-size="14" lengthAdjust="spacing" textLength="107" x="27" y="351.9657">content : String</text><ellipse cx="18" cy="364.9159" fill="#000000" rx="3" ry="3" style="stroke:#000000;stroke-width:1.0;"/><text fill="#000000" font-family="sans-serif" font-size="14" lengthAdjust="spacing" textLength="97" x="27" y="368.2626">images : Array</text><ellipse cx="18" cy="381.2128" fill="#000000" rx="3" ry="3" style="stroke:#000000;stroke-width:1.0;"/><text fill="#000000" font-family="sans-serif" font-size="14" lengthAdjust="spacing" textLength="101" x="27" y="384.5595">user : ObjectId</text><ellipse cx="18" cy="397.5097" fill="#000000" rx="3" ry="3" style="stroke:#000000;stroke-width:1.0;"/><text fill="#000000" font-family="sans-serif" font-size="14" lengthAdjust="spacing" textLength="138" x="27" y="400.8564">totalVotes : Number</text></g><!--class comment--><g id="elem_comment"><rect codeLine="21" fill="#F1F1F1" height="129.4844" id="comment" rx="2.5" ry="2.5" style="stroke:#181818;stroke-width:0.5;" width="164" x="137" y="485.16"/><ellipse cx="180.8" cy="501.16" fill="#ADD1B2" rx="11" ry="11" style="stroke:#181818;stroke-width:1.0;"/><path d="M184.9094,507.16 L177.1906,507.16 L177.1906,494.7694 L184.9094,494.7694 L184.9094,496.9256 L179.6438,496.9256 L179.6438,499.5975 L184.4094,499.5975 L184.4094,501.7538 L179.6438,501.7538 L179.6438,505.0038 L184.9094,505.0038 L184.9094,507.16 Z " fill="#000000"/><text fill="#000000" font-family="sans-serif" font-size="14" lengthAdjust="spacing" textLength="68" x="201.2" y="506.0067">Comment</text><line style="stroke:#181818;stroke-width:0.5;" x1="138" x2="300" y1="517.16" y2="517.16"/><ellipse cx="148" cy="530.8084" fill="#000000" rx="3" ry="3" style="stroke:#000000;stroke-width:1.0;"/><text fill="#000000" font-family="sans-serif" font-size="14" lengthAdjust="spacing" textLength="89" x="157" y="534.1551">_id : ObjectId</text><line style="stroke:#181818;stroke-width:1.0;" x1="138" x2="300" y1="541.4569" y2="541.4569"/><ellipse cx="148" cy="555.1053" fill="#000000" rx="3" ry="3" style="stroke:#000000;stroke-width:1.0;"/><text fill="#000000" font-family="sans-serif" font-size="14" lengthAdjust="spacing" textLength="119" x="157" y="558.452">comment : String</text><ellipse cx="148" cy="571.4022" fill="#000000" rx="3" ry="3" style="stroke:#000000;stroke-width:1.0;"/><text fill="#000000" font-family="sans-serif" font-size="14" lengthAdjust="spacing" textLength="101" x="157" y="574.7489">user : ObjectId</text><ellipse cx="148" cy="587.6991" fill="#000000" rx="3" ry="3" style="stroke:#000000;stroke-width:1.0;"/><text fill="#000000" font-family="sans-serif" font-size="14" lengthAdjust="spacing" textLength="100" x="157" y="591.0457">blog : ObjectId</text><ellipse cx="148" cy="603.9959" fill="#000000" rx="3" ry="3" style="stroke:#000000;stroke-width:1.0;"/><text fill="#000000" font-family="sans-serif" font-size="14" lengthAdjust="spacing" textLength="138" x="157" y="607.3426">totalVotes : Number</text></g><!--class vote--><g id="elem_vote"><rect codeLine="29" fill="#F1F1F1" height="113.1875" id="vote" rx="2.5" ry="2.5" style="stroke:#181818;stroke-width:0.5;" width="127" x="155.5" y="691.64"/><ellipse cx="198.85" cy="707.64" fill="#ADD1B2" rx="11" ry="11" style="stroke:#181818;stroke-width:1.0;"/><path d="M202.9594,713.64 L195.2406,713.64 L195.2406,701.2494 L202.9594,701.2494 L202.9594,703.4056 L197.6938,703.4056 L197.6938,706.0775 L202.4594,706.0775 L202.4594,708.2338 L197.6938,708.2338 L197.6938,711.4838 L202.9594,711.4838 L202.9594,713.64 Z " fill="#000000"/><text fill="#000000" font-family="sans-serif" font-size="14" lengthAdjust="spacing" textLength="32" x="219.15" y="712.4867">Vote</text><line style="stroke:#181818;stroke-width:0.5;" x1="156.5" x2="281.5" y1="723.64" y2="723.64"/><ellipse cx="166.5" cy="737.2884" fill="#000000" rx="3" ry="3" style="stroke:#000000;stroke-width:1.0;"/><text fill="#000000" font-family="sans-serif" font-size="14" lengthAdjust="spacing" textLength="89" x="175.5" y="740.6351">_id : ObjectId</text><line style="stroke:#181818;stroke-width:1.0;" x1="156.5" x2="281.5" y1="747.9369" y2="747.9369"/><ellipse cx="166.5" cy="761.5853" fill="#000000" rx="3" ry="3" style="stroke:#000000;stroke-width:1.0;"/><text fill="#000000" font-family="sans-serif" font-size="14" lengthAdjust="spacing" textLength="101" x="175.5" y="764.932">user : ObjectId</text><ellipse cx="166.5" cy="777.8822" fill="#000000" rx="3" ry="3" style="stroke:#000000;stroke-width:1.0;"/><text fill="#000000" font-family="sans-serif" font-size="14" lengthAdjust="spacing" textLength="101" x="175.5" y="781.2289">post : ObjectId</text><ellipse cx="166.5" cy="794.1791" fill="#000000" rx="3" ry="3" style="stroke:#000000;stroke-width:1.0;"/><text fill="#000000" font-family="sans-serif" font-size="14" lengthAdjust="spacing" textLength="98" x="175.5" y="797.5257">vote : Number</text></g><!--link user to blog--><g id="link_user_blog"><path codeLine="36" d="M184.85,176.61 C171.89,196.83 158.1,218.34 145.14,238.55 " fill="none" id="user-blog" style="stroke:#181818;stroke-width:1.0;"/><line style="stroke:#181818;stroke-width:1.0;" x1="184.0148" x2="190.7535" y1="171.5135" y2="175.8252"/><line style="stroke:#181818;stroke-width:1.0;" x1="182.398" x2="189.1367" y1="174.0405" y2="178.3522"/><line style="stroke:#181818;stroke-width:1.0;" x1="185.2284" x2="189.54" y1="177.0387" y2="170.3"/><line style="stroke:#181818;stroke-width:1.0;" x1="144.7281" x2="145.4609" y1="238.2055" y2="248.1786"/><line style="stroke:#181818;stroke-width:1.0;" x1="144.7281" x2="135.3591" y1="238.2055" y2="241.7014"/><line style="stroke:#181818;stroke-width:1.0;" x1="144.7281" x2="140.41" y1="238.2055" y2="244.94"/><ellipse cx="147.9667" cy="233.1546" fill="none" rx="4" ry="4" style="stroke:#181818;stroke-width:1.0;"/><text fill="#000000" font-family="sans-serif" font-size="13" lengthAdjust="spacing" textLength="37" x="171" y="212.1469">writes</text></g><!--link user to comment--><g id="link_user_comment"><path codeLine="37" d="M236.73,178.24 C232.58,265.14 226.33,395.62 222.47,476.35 " fill="none" id="user-comment" style="stroke:#181818;stroke-width:1.0;"/><line style="stroke:#181818;stroke-width:1.0;" x1="232.9717" x2="240.9624" y1="174.2124" y2="174.5983"/><line style="stroke:#181818;stroke-width:1.0;" x1="232.8269" x2="240.8176" y1="177.2089" y2="177.5948"/><line style="stroke:#181818;stroke-width:1.0;" x1="236.774" x2="237.16" y1="178.4007" y2="170.41"/><line style="stroke:#181818;stroke-width:1.0;" x1="222.4453" x2="228.053" y1="475.9793" y2="484.259"/><line style="stroke:#181818;stroke-width:1.0;" x1="222.4453" x2="216.067" y1="475.9793" y2="483.681"/><line style="stroke:#181818;stroke-width:1.0;" x1="222.4453" x2="222.06" y1="475.9793" y2="483.97"/><ellipse cx="222.7342" cy="469.9862" fill="none" rx="4" ry="4" style="stroke:#181818;stroke-width:1.0;"/><text fill="#000000" font-family="sans-serif" font-size="13" lengthAdjust="spacing" textLength="37" x="234" y="331.6869">writes</text></g><!--link blog to comment--><g id="link_blog_comment"><path codeLine="38" d="M140.85,416.18 C152.78,436.44 165.33,457.76 176.8,477.23 " fill="none" id="blog-comment" style="stroke:#181818;stroke-width:1.0;"/><line style="stroke:#181818;stroke-width:1.0;" x1="134.8927" x2="141.779" y1="414.929" y2="410.8573"/><line style="stroke:#181818;stroke-width:1.0;" x1="136.4197" x2="143.3059" y1="417.5114" y2="413.4396"/><line style="stroke:#181818;stroke-width:1.0;" x1="140.3718" x2="136.3" y1="416.3363" y2="409.45"/><line style="stroke:#181818;stroke-width:1.0;" x1="177.2345" x2="186.4675" y1="476.99" y2="480.8309"/><line style="stroke:#181818;stroke-width:1.0;" x1="177.2345" x2="176.1325" y1="476.99" y2="486.9291"/><line style="stroke:#181818;stroke-width:1.0;" x1="177.2345" x2="181.3" y1="476.99" y2="483.88"/><ellipse cx="174.1854" cy="471.8226" fill="none" rx="4" ry="4" style="stroke:#181818;stroke-width:1.0;"/><text fill="#000000" font-family="sans-serif" font-size="13" lengthAdjust="spacing" textLength="23" x="163" y="451.2269">has</text></g><!--link user to vote--><g id="link_user_vote"><path codeLine="39" d="M278.64,177.57 C318.31,283.85 368.67,466.3 319,614.64 C310.61,639.7 295.41,663.81 279.36,684.43 " fill="none" id="user-vote" style="stroke:#181818;stroke-width:1.0;"/><line style="stroke:#181818;stroke-width:1.0;" x1="273.2421" x2="280.7257" y1="175.5757" y2="172.7479"/><line style="stroke:#181818;stroke-width:1.0;" x1="274.3025" x2="281.7861" y1="178.382" y2="175.5542"/><line style="stroke:#181818;stroke-width:1.0;" x1="278.3978" x2="275.57" y1="177.9036" y2="170.42"/><line style="stroke:#181818;stroke-width:1.0;" x1="278.8754" x2="278.5825" y1="684.0333" y2="694.029"/><line style="stroke:#181818;stroke-width:1.0;" x1="278.8754" x2="269.1975" y1="684.0333" y2="686.551"/><line style="stroke:#181818;stroke-width:1.0;" x1="278.8754" x2="273.89" y1="684.0333" y2="690.29"/><ellipse cx="282.6144" cy="679.3408" fill="none" rx="4" ry="4" style="stroke:#181818;stroke-width:1.0;"/><text fill="#000000" font-family="sans-serif" font-size="13" lengthAdjust="spacing" textLength="34" x="340" y="451.2269">casts</text></g><!--link blog to vote--><g id="link_blog_vote"><path codeLine="40" d="M59.04,416.92 C44.46,475.62 35.53,552.83 64,614.64 C81.56,652.77 116.09,684.02 148.11,706.58 " fill="none" id="blog-vote" style="stroke:#181818;stroke-width:1.0;"/><line style="stroke:#181818;stroke-width:1.0;" x1="56.3617" x2="64.1109" y1="412.2809" y2="414.2683"/><line style="stroke:#181818;stroke-width:1.0;" x1="55.6165" x2="63.3657" y1="415.1869" y2="417.1742"/><line style="stroke:#181818;stroke-width:1.0;" x1="59.2427" x2="61.23" y1="417.1492" y2="409.4"/><line style="stroke:#181818;stroke-width:1.0;" x1="147.7281" x2="157.7196" y1="707.0172" y2="706.6061"/><line style="stroke:#181818;stroke-width:1.0;" x1="147.7281" x2="150.9204" y1="707.0172" y2="716.4939"/><line style="stroke:#181818;stroke-width:1.0;" x1="147.7281" x2="154.32" y1="707.0172" y2="711.55"/><ellipse cx="142.7841" cy="703.6175" fill="none" rx="4" ry="4" style="stroke:#181818;stroke-width:1.0;"/><text fill="#000000" font-family="sans-serif" font-size="13" lengthAdjust="spacing" textLength="53" x="65" y="554.4669">receives</text></g><!--link comment to vote--><g id="link_comment_vote"><path codeLine="41" d="M219,623.69 C219,642.96 219,663.64 219,682.45 " fill="none" id="comment-vote" style="stroke:#181818;stroke-width:1.0;"/><line style="stroke:#181818;stroke-width:1.0;" x1="215" x2="223" y1="619.92" y2="619.92"/><line style="stroke:#181818;stroke-width:1.0;" x1="215" x2="223" y1="622.92" y2="622.92"/><line style="stroke:#181818;stroke-width:1.0;" x1="219" x2="219" y1="623.92" y2="615.92"/><line style="stroke:#181818;stroke-width:1.0;" x1="219" x2="225" y1="682.23" y2="690.23"/><line style="stroke:#181818;stroke-width:1.0;" x1="219" x2="213" y1="682.23" y2="690.23"/><line style="stroke:#181818;stroke-width:1.0;" x1="219" x2="219" y1="682.23" y2="690.23"/><ellipse cx="219" cy="676.23" fill="none" rx="4" ry="4" style="stroke:#181818;stroke-width:1.0;"/><text fill="#000000" font-family="sans-serif" font-size="13" lengthAdjust="spacing" textLength="53" x="220" y="657.7069">receives</text></g><!--SRC=[bL3BJiD03BpdArOzLieFS6iB1ow0nEEAdCGA2zbrjEkcL2t_ZciIaGsH8cxMZCSpO_Hi-MXMpn73oa0qUndCAJDcRLvjPQxCVV6E9TzM0kMvuXuS2l78mVfQ4NHWcnHg8SO3XIf5RTnKpde1jqGDWhzSDG4ZyaClUA8Fz6FLXB_vRAq0id4DZDbNXds5RKErLYXaMAWWYcRI0JfW22bMacSvF-dWe5R_JGXmL4YVblY81J4qByIwUhTt1OPHs1qv9xFcBN_cXSZ3Lf9bpbZh_olCXT0adGmBCUOSMueynVJKo4jrvtEUqsb8U0XM0YNCRycUrDK_v1kaijwiXCYff2S2bcWxEJUScAU_0G00]--></g></svg>